<?xml version="1.0" encoding="UTF-8"?>
<svg id="grassjelly" data-name="Layer 1" xmlns="http://www.w3.org/2000/svg" version="1.1" viewBox="0 0 600 600">
  <defs>
    <style>
      .cls-1, .cls-2, .cls-3, .cls-4, .cls-5, .cls-6, .cls-7 {
        stroke-width: 0px;
      }

      .cls-1, .cls-3, .cls-4, .cls-5 {
        fill-rule: evenodd;
      }

      .cls-1, .cls-6 {
        fill: #fff;
      }

      .cls-2 {
        fill: #121210;
      }

      .cls-3 {
        fill: #010101;
      }

      .cls-4 {
        fill: #060707;
      }

      .cls-5 {
        fill: #d4984e;
      }

      .cls-7 {
        fill: #f16579;
      }

      #grassjelly:hover #body {
      fill: #264900;
      }

      #grassjelly:hover #highlight {
        fill: green;
      }

      #grassjelly:hover #shoes {
      fill: brown;
      }

      #grassjelly:hover #leg {
        fill: #264900;
      }
      
      #grassjelly:hover #mouth {
        fill: black;
      }
      
      #grassjelly:hover {
      filter: drop-shadow(30px 8px 20px rgb(98, 97, 97));
      animation: bounce 2s infinite;
      }
      
      @keyframes bounce {
      20%, 50%, 80%, to{
        transform: translateY(0);
      }

      40%{
        transform: translateY(-30px);
      }
      70%{
        transform: translateY(-15px);
      }
      90%{
        transform: translateY(-4px);
      }
}
    </style>
  </defs>
  <path id="shoes" class="cls-5" d="M320.9,530.4s-6.1-5.9-1.2-13.1c4.3-6.3,12.4-7.3,22.5-8.2,9.7-.9,20.6-.5,26.3,4.3,5.7,4.9,4.5,11.6.7,14.6,0,0,7.2,8.7,12.9,11.2,0,0,18.8-10,40.8-3.7,22,6.3,35.6,23.9,37.6,37.6,2,13.7-3.5,17.3-6.1,18.7-2.6,1.4-30.4,7-70.8,7.1-40.3,0-68.5-4.4-70.2-6.3-1.7-1.9-5-35.3,7.5-62.3ZM223.6,508.8c-10.6-2.7-23-2.9-27.6,2.6-4.5,5.4-2.5,10.4-.6,12.6,0,0-6.4,6.7-15.6,8.7,0,0-11.7-10.9-36-11.3-24.2-.3-40.9,14.5-46.1,27.6-5.2,13.1-3.5,18.5-1.1,20.5,2,1.7,20.5,14.5,61,21.6,40.5,7.1,78.1,7.3,80.1,5.7,1.9-1.6,4.4-14.4,6.1-26.2,1.7-11.8,1.2-28.6-1.2-35.3,0,0,5.9-3.2,5.8-9.9-.1-7.7-9-12.6-24.9-16.6Z"/>
  <path id="leg" class="cls-3" d="M331.7,509.2c-1.2.2-2.3.5-3.4.8-4.1,1.2-7.5,3.2-9.8,6.7-4.4,6.5-.6,12.1.8,13.9-9.2,20.4-9.6,44.2-8.6,55.6,0,0,0,0,0,0,0,.7.1,1.3.2,2,.2,1.9.5,3.3.8,4.1.2.5.4.9.6,1.1.2.2.5.5,1,.7.7.3,2,.7,3.8,1.1,9.4,2.1,34,5,66.5,4.9,28.4,0,50.6-2.8,62.2-5,5.2-1,8.4-1.8,9.2-2.3,2.7-1.5,8.9-5.3,6.7-19.9-2.1-14.1-15.9-32.1-38.5-38.6-20.1-5.8-37.6,1.7-41.2,3.4-4.3-2.3-9.3-7.8-11.1-9.8,3.5-3.7,4.4-10.6-1.5-15.6-2.4-2.1-5.8-3.4-9.5-4.2-.9-.2-1.9-.3-2.8-.5l.4,6.3c-5.7-78.6-2.9-159.1-2.9-159.1.1-6.2-5.4-11.3-12.5-11.4-7-.1-12.8,4.8-12.9,11,0,0-2.7,77.1,2.5,154.5ZM211,505.8c-2.3,0-4.5,0-6.6.4-4.1.6-7.5,2.1-9.5,4.5-4.5,5.4-3.1,10.5-1.2,13.2-1.8,1.6-6.8,5.8-13.5,7.5-2.7-2.2-14.6-10.8-36.3-11.1-24.9-.3-42,14.9-47.4,28.4-1.8,4.5-2.8,8.2-3.2,11.1,0,0,0,.1,0,.2-.3,2.2-.3,4,0,5.4.4,2.5,1.4,4.1,2.5,5,2,1.7,20.7,14.7,61.7,21.9,32.6,5.7,63.3,6.9,75.2,6.4,2.2-.1,3.8-.3,4.7-.5.7-.2,1.1-.4,1.3-.6.7-.6,1.5-2.2,2.2-4.7.1-.4.3-.9.4-1.4,0,0,0,0,0,0,1.4-5.2,2.8-13.2,3.9-20.8,1.6-11.6,1.2-27.7-1-35,1.8-1.2,5.7-4.6,5.6-10.3,0-4.2-2.5-7.7-7.1-10.6-1.8-1.1-3.9-2.2-6.3-3.1,21.3-77.2,20.6-156.6,20.6-156.6,0-6.2-5.6-11.2-12.6-11.3-7,0-12.8,4.9-12.8,11.1,0,0,.7,76.6-20.7,151ZM357.2,510.6c0,.8.1,1.5.2,2.3,0,.3,0,.6,0,.9,0,.2,0,.5,0,.7,0,.3,0,.5,0,.8,0,.6-.1,1.2-.3,1.7-.2.6-.5,1.2-.9,1.7-.2.2-.3.4-.5.6-.1.1-.3.2-.4.3-.9.7-1.9,1.2-3,1.5-.2,0-.4.1-.5.2-.2,0-.5.1-.7.2-.3,0-.6.1-.9.2-.4,0-.9.2-1.3.2-1.1.2-2.2.2-3.4.3-.8,0-1.6,0-2.3,0-.6,0-1.1,0-1.7,0-.4,0-.8,0-1.2,0-.3,0-.6,0-.9,0-.2,0-.5,0-.7-.1-.2,0-.3,0-.5,0-1.1-.2-2.2-.6-3.2-1.2-.2,0-.3-.2-.4-.3-.2-.2-.4-.3-.6-.5-.5-.5-.9-1-1.2-1.6-.3-.5-.4-1.1-.5-1.7,0-.2,0-.5,0-.7,0-.2,0-.5,0-.7,0-.3,0-.6,0-.9,0-.8-.1-1.6-.2-2.3v-.3c-.9.2-1.8.4-2.7.7-3.5,1.1-6.4,2.7-8.4,5.6-4.1,6,.4,11,1,11.6.5.3,3.8,2.5,10.3,3.2.7,0,1.3.7,1.2,1.3,0,.6-.8,1.1-1.5,1-5.1-.6-8.5-1.9-10.3-2.9-8.5,19.4-9.1,41.7-8.1,53,4.6,1.1,26.8,5.8,63.1,6.3.7,0,1.3.5,1.3,1.2,0,.7-.6,1.2-1.4,1.2-34.6-.5-56.5-4.8-62.8-6.2,0,0,0,.2,0,.3.2,1.9.7,3.6.8,4,.2,0,.7.3,1.1.4,1.4.4,3.5.9,6.4,1.4,11.4,2,33.5,4.1,61.7,4.1,28.1,0,50.1-2.8,61.7-4.9,4.7-.9,7.6-1.6,8.4-2,1.3-.7,3.2-1.9,4.5-4.8-9.1,3.3-30,7.1-65.1,7.8-.7,0-1.3-.5-1.4-1.2s.6-1.2,1.3-1.2c37.3-.7,58.3-5,66-8.3,0,0,0,0,.1,0,.5-2.4.6-5.6,0-9.8-2-13.4-15.2-30.5-36.7-36.7-21.4-6.2-39.7,3.6-39.7,3.6h0s-8.1,4.3-15.8,13.5c-.4.5-1.3.6-1.9.3s-.7-1.1-.3-1.6c5.8-7,11.9-11.3,14.8-13.1-4.3-2.6-8.8-7.6-10.7-9.7-1.9,1.1-5.9,3.2-11,4.1-.7.1-1.4-.3-1.6-.9-.1-.6.3-1.3,1.1-1.4,6-1,10.5-4,10.9-4.3,3.3-2.7,4.2-8.6-.8-12.9-2.1-1.8-5-2.9-8.3-3.6-.7-.1-1.4-.3-2.1-.4v.2ZM210.3,508.2c-1.9,0-3.7,0-5.4.3-3.3.5-6.1,1.6-7.8,3.6-4,4.8-2.4,9.2-.6,11.2h0s0,0,0,0c0,0,2.2,2.6,7.1,4.7.7.3.9,1,.6,1.6-.3.6-1.1.8-1.8.5-3.6-1.5-5.9-3.3-7.1-4.4-2,1.8-6.7,5.6-12.9,7.5,2.6,2.4,7.9,7.6,12.6,15.6.3.6,0,1.3-.6,1.6-.7.3-1.5,0-1.8-.5-6.2-10.6-13.5-16.2-13.6-16.3h0s0,0,0,0h0c-.3-.3-11.7-10.6-35-10.9-23.6-.3-39.7,14.1-44.8,26.8-1.6,4.1-2.6,7.5-3,10.2,2.3,1.9,13.7,10.7,38.6,18.1.7.2,1.1.9.8,1.5-.2.6-1,.9-1.7.7-21.8-6.5-33.6-14.1-38-17.4,0,.3,0,.6,0,.9,0,2.8.8,4.4,1.8,5.2,2,1.7,20.3,14.3,60.4,21.3,32.3,5.6,62.7,6.9,74.6,6.4,2.1-.1,4-.4,4.4-.5.1-.1.2-.3.3-.6.3-.7.7-1.6,1-2.8-8.2.3-43.4.8-85.5-7.8-.7-.1-1.2-.8-1-1.4s.9-1,1.6-.9c43.2,8.9,79.2,8,85.5,7.7,1.3-5.1,2.6-12.6,3.6-19.7,1.6-11,1.2-26.3-.8-33.6-1.9.5-5.5,1.2-11.2.6-.7,0-1.3-.7-1.2-1.3,0-.6.7-1.1,1.5-1,7.7.8,11-.9,11.1-.9.1,0,5.3-2.9,5.2-8.8,0-3.5-2.1-6.3-6-8.7-1.5-1-3.3-1.9-5.4-2.7h0c-.3,1.3-.7,2.5-1.1,3.8-.1.4-.2.8-.3,1.2,0,.1,0,.3-.1.4,0,.1,0,.3-.2.4-.2.4-.4.7-.6,1-.3.3-.6.6-.9.9-.1,0-.2.2-.3.2-.8.5-1.7.7-2.6.9-.2,0-.3,0-.5,0-.2,0-.4,0-.6,0-.3,0-.5,0-.8,0-.3,0-.7,0-1,0-.4,0-.9,0-1.3,0-1.2,0-2.5-.3-3.7-.5-.3,0-.6-.1-.9-.2-.2,0-.5,0-.7-.1-.3,0-.6-.1-.9-.2-1.4-.3-2.8-.8-4.1-1.3-1.1-.4-2.1-1-3.1-1.6-.4-.3-.8-.6-1.2-.9-.3-.3-.7-.6-.9-.9-.4-.5-.8-1-1.1-1.5-.1-.3-.2-.6-.3-.9,0-.3,0-.7,0-1,0,0,0-.2,0-.3,0-.1,0-.2,0-.3,0,0,0-.2,0-.2,0-.3.2-.6.3-.9.4-1.3.8-2.5,1.1-3.8h0Z"/>
  <path id="body" class="cls-4" d="M587.9,313.1c-5.1,26.6-29.1,47.3-59.3,51.3-155.7,20.8-307.5,18.4-456.7-.5-30.5-3.8-54.7-24.6-59.9-51.4-15.7-82.1-16.1-165.6-.4-250.3,5.2-28,31.3-49.4,63.4-52,150.6-12.1,300.6-12.2,450.1,0,32.1,2.7,58.1,24,63.3,52,15.8,84.9,15.2,168.6-.6,251Z"/>
  <path id="highlight" class="cls-1" d="M86.4,31.6c.8-.5,1.7-.8,2.8-.8,4.5,0,5.1,3.1,5.2,3.7.2,1,.2,2.9-2.3,4.2-.3.2-1,.5-2,.7-1.6.4-5,1.1-6.5,1.4-4.7,1.1-9.4,2.2-14,3.5-14.2,4-23,13-26.7,25.7-.1.5-2,7.6-2.3,8.9.1.7,0,1.5-.4,2.2-1.1,2.1-3.9,3.1-6.3,2.2-.9-.3-3-1.4-3-4.2,0-1.9,2.5-10.6,2.6-11.2,4.5-15.6,15.5-26.6,33-31.6,4.8-1.4,9.6-2.5,14.5-3.6,1-.2,3.7-.8,5.2-1.2ZM570.2,300.2c-1.5-1.9-4.5-2.4-6.6-1.1-.8.5-1.9,1.6-2.6,3.3-.9,2.3-1.4,7.2-1.8,8.6-6.9,21.8-27.2,27.8-49.5,32.7-2.6.6-4.1,2.9-3.5,5.1.6,2.3,3.2,3.6,5.8,3.1,25.8-5.7,48.4-13.4,56.4-38.6.3-1,.7-3.7,1.1-6.1.1-.7.4-1.7.5-2.1,1.2-1.4,1.3-3.4.2-4.9Z"/>
  <path id="mouth" class="cls-7" d="M339.8,301.2c4.6-2.9,37.6,18.5,6.8,36.1-48.2,31.7-66.3-34.8-66.3-34.8,8.1,9.8,52.1,3.5,59.5-1.2ZM349,340.3c16.2-9.3,15.6-19.7,13.8-25.1-3.4-10.2-15.7-17.9-21.9-17.9s-2.6.3-3.6,1c-3.2,2-20,5.7-35.8,5.7s-16.4-1.9-17.9-3.6l-7.5,3c.5,1.9,13,46.2,45.9,46.2s17.6-3.1,27-9.2ZM301.5,311.3c14.5,0,33.2-3.1,39.8-6.6,3,.7,11.5,6.1,13.6,13,1.8,5.9-1.8,11.5-10.6,16.5h-.2c-7.9,5.3-15.3,8-22.1,8-18.7,0-29.8-20.3-34.7-32.2,3.9.9,8.6,1.3,14.2,1.3ZM360.9,294.9l17.9-14.1-5.6-5.5-17.6,13.9c-52.8,36.5-128.2-13.5-129-14l-5.1,5.9c.8.6,20.4,13.7,47.2,22.1,14.5,4.6,28.4,6.8,41.3,6.8,19.2,0,36.4-5,50.8-15Z"/>
  <g id="eyes">
    <g id="left">
      <path id="left_black" data-name="left black" class="cls-6" d="M115.3,139.8c0,41.2,37.9,74.6,84.8,74.6s84.8-33.4,84.8-74.6-37.9-74.6-84.8-74.6-84.8,33.4-84.8,74.6"/>
    </g>
    <g id="right">
      <path id="right_white" data-name="right white" class="cls-6" d="M484.7,139.8c0,41.2-38,74.6-84.8,74.6s-84.8-33.4-84.8-74.6,38-74.6,84.8-74.6,84.8,33.4,84.8,74.6"/>
      <path id="left_black-2" data-name="left black" class="cls-2" d="M220.8,178.5c-4.5,0-8.2-3.2-8.2-7.2s3.7-7.2,8.2-7.2,8.2,3.2,8.2,7.2-3.7,7.2-8.2,7.2ZM200.1,85.7c-10.7,0-20.7,2.4-29.5,6.6,9.3,2.6,16,10.2,16,19.1s-10.2,20.1-22.8,20.1-17.2-4.8-20.8-11.8c-2.8,6.2-4.4,13-4.4,20,0,29.9,27.5,54.1,61.4,54.1s61.4-24.2,61.4-54.1-27.5-54.1-61.4-54.1"/>
      <path id="right_black" data-name="right black" class="cls-2" d="M371.1,171.2c0-4,3.7-7.2,8.2-7.2s8.2,3.2,8.2,7.2-3.7,7.2-8.2,7.2-8.2-3.2-8.2-7.2ZM338.6,139.8c0,29.9,27.5,54.1,61.4,54.1s61.4-24.2,61.4-54.1-1.6-13.8-4.4-20c-3.6,7-11.5,11.8-20.7,11.8s-22.8-9-22.8-20.1,6.7-16.6,16-19.1c-8.7-4.2-18.8-6.6-29.5-6.6-33.9,0-61.4,24.2-61.4,54.1"/>
    </g>
  </g>
</svg>