<?xml version="1.0" encoding="UTF-8"?>
<svg id="lychee" xmlns="http://www.w3.org/2000/svg" version="1.1" xmlns:xlink="http://www.w3.org/1999/xlink" viewBox="0 0 600 600">
  <defs>
    <style>
      .cls-1 {
        fill: #e53e3c;
      }

      .cls-1, .cls-2, .cls-3, .cls-4, .cls-5, .cls-6, .cls-7, .cls-8, .cls-9, .cls-10 {
        stroke-width: 0px;
      }

      .cls-2 {
        fill: #d82e27;
      }

      .cls-3 {
        fill: #f7b0c2;
      }

      .cls-4 {
        fill: #ce2f2e;
      }

      .cls-5 {
        fill: #af1f24;
      }

      .cls-6 {
        fill: none;
      }

      .cls-7 {
        fill: #f8eada;
      }

      .cls-8 {
        fill: #a42c22;
      }

      .cls-9 {
        fill: #010101;
      }

      .cls-11 {
        clip-path: url(#clippath);
      }

      .cls-10 {
        fill: #fff;
      }

    #lychee:hover #pinkk {
    fill: red;
    }

    #lychee:hover #Body_white {
    fill: pink;
    }

    #lychee {
      transition: filter 0.3s, transform 0.3s cubic-bezier(0.68, -0.55, 0.27, 1.55);
    }

    #lychee:hover {
    filter: drop-shadow(30px 8px 20px rgb(98, 97, 97));
    transform: translate(10px, -10px);
    }


    </style>
    <clipPath id="clippath">
      <rect class="cls-6" x="18.1" y="280" width="558.7" height="316.9"/>
    </clipPath>
  </defs>
  <g id="Body_red" data-name="Body red">
    <g class="cls-11">
      <path class="cls-4" d="M557.8,430.4c-3.8,8.4-16.8,11.9-21.3,19.7-4.6,7.9-1,20.9-6.2,28.2-5.2,7.5-18.7,8.4-24.8,15.2-6,6.8-5.1,20.3-11.7,26.5s-20,4.6-27.1,10c-7.1,5.6-8.9,18.9-16.7,23.8-7.6,4.8-20.5.5-28.6,4.6-8.1,4-12.4,16.8-20.9,20-8.4,3.2-20.2-3.5-28.9-1.1-8.7,2.4-15.4,14.1-24.4,15.5-8.9,1.4-19-7.3-28.2-6.7-9,.6-17.9,10.8-27,10.5-9-.3-17.3-10.9-26.3-12.1-8.9-1.1-19.7,7.1-28.6,5.1-8.9-2.1-14.9-14.1-23.5-17-8.7-2.9-20.8,3-29-.6-8.4-3.8-11.9-16.8-19.7-21.3-7.9-4.6-20.9-.9-28.2-6.2-7.5-5.2-8.4-18.7-15.2-24.7s-20.3-5.1-26.5-11.7c-6.2-6.7-4.6-20-10-27.1-5.6-7.1-18.9-8.9-23.8-16.7-4.8-7.6-.5-20.5-4.6-28.5-4-8.1-16.8-12.4-20-20.9-3.2-8.4,3.5-20.1,1.1-28.9-2.4-8.7-14.1-15.4-15.5-24.4-1.4-8.9,7.3-19,6.7-28.2-.6-9-10.8-17.9-10.5-27,.3-9,10.9-17.3,12.1-26.3,7,17,19.7,34.3,37.3,50.6,43.8,41.1,117.6,77.9,205.3,98,63.9,14.7,125.2,18.1,175.8,12,65-7.8,112.8-31.4,126.9-67.4.2,1.4,0,3-.3,4.4-2.1,8.9-14.1,14.9-17,23.5-2.9,8.9,3.2,20.9-.6,29.2Z"/>
    </g>
    <path class="cls-1" d="M448.7,440.9c0,.3-.2.5-.2.8s-.2.5-.2.8c-.3,0-.6.2-1,.2-5.9,1.1-14,2.7-21.3,7.9-7.3,5.4-10.8,12.4-13.5,17.6-.2.3-.3.5-.3.8h-1c-6,0-14.3,0-22.5,3.8-8.3,3.8-13.2,10.2-16.8,14.8-.2.2-.3.5-.5.6-.3,0-.6-.2-.8-.2-6-1.1-14.1-2.7-23-.5-8.9,2.2-15.1,7.5-19.5,11.3-.2.2-.5.3-.6.6-.3-.2-.5-.2-.8-.3-3.2-1.3-7-2.7-11.3-3.8-4-1-7.6-1.3-11.3-1.1-9.2.5-16.3,4.4-21.4,7.3-.3.2-.5.3-.8.5-.3-.2-.5-.3-.6-.5-4.3-2.9-10.3-6.7-17.9-8.4-1.1-.3-2.2-.5-3.5-.6-9.2-1.3-17,1.3-22.7,3-.3.2-.6.2-1,.3-.3-.3-.5-.5-.8-.6-4.3-4.1-10.3-9.7-19-12.5l-3.3-1c-7.6-1.7-14.6-.9-19.8-.3-.3,0-.5,0-.8.2-.2-.3-.3-.5-.5-.8-3.5-4.8-8.1-11.4-16.2-15.9-3.2-1.7-6.7-3.2-10.6-4-4.3-1-8.4-1.3-11.7-1.6h-.8c-.2-.3-.3-.6-.3-.8-2.4-5.4-5.7-12.7-12.7-18.6-7-5.9-15.1-8.1-20.9-9.7-.3,0-.5-.2-.8-.2,0-.3-.2-.6-.2-.8-1.3-5.7-3-13.5-8.7-20.6-5.7-7.1-13.2-10.6-18.7-13.3-.3-.2-.5-.3-.8-.3v-.8c-.2-5.9-.3-13.8-4.4-21.7-4.3-7.9-10.8-12.8-15.7-16.5-.2-.2-.5-.3-.8-.5,0-.3.2-.6.2-.8,1.1-5.7,2.5-13.5,0-22-.2-.5-.3-.9-.5-1.4,43.8,41.1,117.6,77.9,205.3,98,63.1,14.3,124.4,17.8,175,11.6Z"/>
    <path class="cls-5" d="M360.5,548.7c-.9,4.1-2.5,7.6-4.8,10.6-2.2,3-4.9,5.6-8.1,7.5-12.5,7.9-30.9,7.3-43.3-1.4-14.4-9.7-23-33.5-7.5-45.2,16.7-12.2,42.4-5.4,56.2,10.1,2.7,3.2,5.1,6.5,6.7,10.3.8,2.5,1.1,5.4.8,8.1Z"/>
    <path class="cls-5" d="M440.6,530.2c-5.4,17.9-29,31.7-46.8,19.8-9.8-7.5-11.9-20.6-9.4-31.6,4.3-13.2,16.5-21.9,30.8-22.4,12.7.3,24.8,9.5,26.3,23,.3,3.5.2,7.3-1,11.1Z"/>
    <path class="cls-5" d="M442,475.1c-1.4,4.8-4.9,8.2-9.4,10.2-2.2.9-4.6,1.6-7,1.9-11.1.6-27.1-4.1-28.2-15.7-1-12.5,12.7-21.9,24.8-20.9,2.4.3,4.6,1,6.8,1.7,6.5,2.7,12.1,7.8,13.2,15.2.5,2.4.5,5.1-.2,7.6Z"/>
    <path class="cls-5" d="M390.5,483.6c1.4,6.7-.6,13-4.6,18.1-1.9,2.5-4.4,4.8-7,6.5-12.9,7.6-34.9,12.4-43.6-.8-9-14.4,1.1-33.9,16.2-40.6,2.9-1.1,6-1.9,9.2-2.2,9.4-.9,19.2,1.7,25.4,9.7,2.2,2.7,3.6,5.9,4.4,9.4Z"/>
    <path class="cls-5" d="M499.1,459.3c5.1,4.4,7.3,10.8,7.3,17.1s-.6,6.5-1.6,9.5c-5.6,13.8-20.3,30.9-35.2,25.7-15.9-5.9-19.7-27.7-11.7-42,1.6-2.7,3.7-5.1,6-7.3,6.8-6.5,16.3-10.3,26-7.6,3.3.8,6.5,2.4,9.2,4.6Z"/>
    <path class="cls-5" d="M275.3,530.8c-1.4,10.9-9,21.9-20.8,22.4-2.7.5-5.4.6-7.9.5-2.5-.2-5.1-.6-7.5-1.6-4.6-1.7-8.4-5.1-10-10.3-6-18.1,6.7-45.8,27.4-41.1,4.4.3,8.7,2.4,12.1,5.5,3.3,3.2,5.6,7.5,5.6,12.5.9,3.7,1.4,7.8,1.1,12.1Z"/>
    <path class="cls-5" d="M215.8,499.9c6.5,8.9,8.4,22.2.2,30.4-1.6,2.1-3.5,4.1-5.6,5.7s-4.3,3-6.5,4c-4.6,1.9-9.7,2.1-14.4-.6-16.8-9-26.5-38.1-8.3-48.7,3.5-2.7,7.9-4.3,12.5-4.3s9,1.7,12.7,5.4c3.5,2.1,6.7,4.8,9.4,8.1Z"/>
    <path class="cls-2" d="M281.3,466.7c.3,7.8-4.6,18.1-12.7,20.1-3.2.8-6.5,1.1-9.7,1.1-16.5-.2-33.3-10.3-38.1-27.4-2.7-10.8,2.5-22.5,12.8-27.8,14.8-8.4,32.8-.8,41.6,12.8,1.7,2.7,3,5.7,3.8,8.9,1.4,3.8,2.2,7.9,2.2,12.2Z"/>
    <path class="cls-2" d="M199.3,429.5c4.8,6.2,6.5,17.4,1,23.8-2.2,2.4-4.8,4.6-7.5,6.3-13.8,9.2-33.3,10.3-46.8-1.1-8.3-7.5-10.6-20-5.2-30.1,7.5-15.2,26.7-19.3,41.4-12.8,3,1.3,5.7,3,8.3,5.1,3.5,2.5,6.5,5.6,8.9,8.9Z"/>
    <path class="cls-2" d="M335.1,446c5.4,3.3,10,11.4,7.6,17.8-1,2.5-2.2,4.9-3.8,7-7.8,10.9-22.4,17.6-35.9,12.8-8.6-3.2-13.8-12.1-12.7-21.4,1.1-13.8,14.6-22.5,27.8-21.9,2.5.2,5.2.6,7.8,1.4,3.2,1,6.3,2.4,9.2,4.3Z"/>
    <path class="cls-5" d="M129.5,422.8c-1,4.1-2.5,7.6-4.8,10.6-2.2,3-4.9,5.6-8.1,7.5-12.5,7.9-30.9,7.3-43.3-1.4-14.4-9.7-23-33.5-7.5-45.2,16.7-12.2,42.4-5.4,56.2,10.2,2.7,3.2,5.1,6.5,6.7,10.3.8,2.5,1,5.2.8,8.1Z"/>
    <path class="cls-5" d="M154.1,498.6c-3.3,5.9-9,9.2-15.4,10.5-3.2.6-6.5.6-9.7.2-14.8-2.7-34.3-14-32-29.5,2.7-16.8,23.5-24.6,39-19.7,2.9,1.1,5.7,2.5,8.4,4.4,7.8,5.6,13.2,14,12.5,24.1-.3,3.5-1.3,6.8-2.9,10Z"/>
    <path class="cls-8" d="M580.4,367.5c-10.3,29.7-37.6,53.3-66.8,66.3-4.1,1.7-8.3,3.2-12.5,4.4-21.3,6.3-43.9,9-66.2,11.3-3.8.8-7.8,1.4-11.6,2.1-30.9,4.6-62.3,1.3-93.6-7-3.2-.5-6.2-.9-9.4-1.4-33.3.2-68.1.3-96.6-15.7-3.5-2.1-7-4.3-10.5-6.8-4.8-2.5-6.3-6.8-9.8-8.9-35.9-12.1-70.4-23.9-100.4-47.6-3-2.2-6-4.3-9-6.5s-5.9-4.3-8.7-6.5c-3.8-2.9-7.3-5.9-10.8-8.9C29.4,322.4-1.4,271.2,31.6,223.8c1.4-2.7,3.2-5.2,5.1-7.8,27-31.2,70.6-47.3,110.4-46.1,3.8,0,7.8-.2,11.6-.3,27-.8,53.1-3.6,80.8-8.4,4.3.2,8.6.5,12.8.8,2.9.3,5.7.5,8.7.8,43.5,5.6,85,15.1,126.6,27.4,4,1.7,7.8,3.5,11.7,5.2,35.1,15.5,70.1,29,102.3,49,4,2.7,7.8,5.4,11.4,8.3,25.5,27.8,56.8,54.4,68.4,91.8.8,4.6,1.1,9.4.2,14,0,3.2-.5,6.2-1.3,9Z"/>
  </g>
  <path id="Body_white" data-name="Body white" class="cls-7" d="M486.3,253.3c-19.7,85.3-105,96.7-211.5,72.3-106.6-24.4-205.3-68.5-174.4-160.9C135.4,60.3,231.5-9.6,338,14.8c106.5,24.4,172.9,131.3,148.3,238.5ZM566.1,313.1c-24.8,107.5-137.6,120.7-279.1,88.2C145.5,368.7,14.1,311.8,53.8,195.6,98.4,64.3,224.7-22.6,366.2,9.9s230.8,168.2,199.9,303.2Z"/>
  <g id="higlights">
    <path class="cls-10" d="M179.6,65.6s59.3-55.2,130.4-48c71.1,7.1,6.5,65.3-28.2,71.4-34.7,6.2-114.4,63.7-135,41.5-20.5-22,32.8-64.9,32.8-64.9Z"/>
    <path class="cls-10" d="M123.2,141c1.2.3,2.3.7,3.3,1.2,1.1.5,2.1,1.2,3,1.9s1.8,1.6,2.6,2.6c.8,1,1.5,2,2.1,3.1.6,1.1,1.1,2.3,1.5,3.5.4,1.2.7,2.5.8,3.8.2,1.3.2,2.7.1,4,0,1.3-.3,2.7-.6,4-.3,1.3-.7,2.6-1.2,3.8-.5,1.2-1.1,2.4-1.9,3.5-.7,1.1-1.5,2.1-2.4,3.1-.9.9-1.9,1.8-2.9,2.5-1,.7-2.1,1.4-3.2,1.9-1.1.5-2.3.9-3.5,1.2-1.2.3-2.4.4-3.6.4-1.2,0-2.4-.1-3.5-.4-1.2-.3-2.3-.7-3.4-1.2-1.1-.5-2.1-1.2-3-1.9s-1.8-1.6-2.6-2.6c-.8-1-1.5-2-2.1-3.1s-1.1-2.3-1.5-3.5c-.4-1.2-.7-2.5-.8-3.8-.2-1.3-.2-2.7-.1-4,0-1.3.3-2.7.6-4,.3-1.3.7-2.6,1.2-3.8.5-1.2,1.1-2.4,1.9-3.5.7-1.1,1.5-2.2,2.4-3.1.9-1,1.9-1.8,2.9-2.5,1-.7,2.1-1.4,3.3-1.9,1.1-.5,2.3-.9,3.5-1.2,1.2-.3,2.4-.4,3.6-.4,1.2,0,2.4.1,3.5.4Z"/>
  </g>
  <g id="eyes">
    <path class="cls-9" d="M206.6,173.4c1.1.3,2.2.7,3.3,1.2,1.1.4,2.1.9,3.1,1.5s2,1.1,3,1.8c1,.6,1.9,1.3,2.8,2.1.9.7,1.7,1.5,2.6,2.3s1.6,1.7,2.3,2.6c.7.9,1.4,1.8,2,2.8.6,1,1.2,2,1.8,3,.5,1,1,2.1,1.5,3.1s.8,2.2,1.2,3.3c.3,1.1.6,2.2.8,3.4.2,1.1.4,2.3.5,3.4.1,1.1.2,2.3.2,3.4,0,1.2,0,2.3-.2,3.5-.1,1.1-.3,2.3-.5,3.4-.2,1.1-.5,2.3-.8,3.3-.3,1.1-.7,2.2-1.2,3.3-.4,1.1-.9,2.1-1.5,3.1s-1.1,2-1.8,3c-.6,1-1.3,1.9-2.1,2.8-.7.9-1.5,1.7-2.3,2.6-.8.8-1.7,1.6-2.6,2.3-.9.7-1.8,1.4-2.8,2.1-1,.6-2,1.2-3,1.8-1,.5-2.1,1-3.1,1.5-1.1.4-2.2.8-3.3,1.2-1.1.3-2.2.6-3.4.8-1.1.2-2.3.4-3.4.5-1.2.1-2.3.2-3.5.2-1.2,0-2.3,0-3.5-.2-1.1-.1-2.3-.3-3.4-.5s-2.2-.5-3.3-.8-2.2-.7-3.3-1.2c-1.1-.4-2.1-.9-3.1-1.5s-2-1.1-3-1.8c-1-.6-1.9-1.3-2.8-2.1-.9-.7-1.7-1.5-2.6-2.3-.8-.8-1.6-1.7-2.3-2.6-.7-.9-1.4-1.8-2-2.8-.6-1-1.2-1.9-1.8-3-.5-1-1-2.1-1.5-3.1s-.8-2.2-1.2-3.3c-.3-1.1-.6-2.2-.8-3.4-.2-1.1-.4-2.3-.5-3.4s-.2-2.3-.2-3.5c0-1.2,0-2.3.2-3.4s.3-2.3.5-3.4.5-2.2.8-3.3c.3-1.1.7-2.2,1.2-3.2.4-1.1.9-2.1,1.5-3.1s1.1-2,1.8-3c.6-1,1.3-1.9,2.1-2.8s1.5-1.7,2.3-2.6,1.7-1.6,2.6-2.3c.9-.7,1.8-1.4,2.8-2s2-1.2,3-1.8c1-.5,2.1-1,3.1-1.5s2.2-.8,3.3-1.2c1.1-.3,2.2-.6,3.4-.8,1.1-.2,2.3-.4,3.4-.5,1.1-.1,2.3-.2,3.5-.2,1.2,0,2.3,0,3.5.2,1.1.1,2.3.3,3.4.5s2.2.5,3.3.8Z"/>
    <path class="cls-10" d="M220.7,201.1c-1.4,6-7.5,9.8-13.5,8.4-6-1.4-9.8-7.5-8.4-13.5,1.4-6,7.5-9.8,13.5-8.4,6,1.4,9.7,7.5,8.4,13.5Z"/>
    <path class="cls-9" d="M472.4,253.5c.3,1.1.5,2.2.7,3.4.2,1.1.3,2.3.4,3.4,0,1.2,0,2.3,0,3.5,0,1.2-.1,2.3-.3,3.4-.2,1.1-.4,2.3-.6,3.4-.3,1.1-.6,2.2-.9,3.3-.4,1.1-.8,2.2-1.3,3.2-.5,1.1-1,2.1-1.6,3.1-.6,1-1.2,2-1.9,2.9s-1.4,1.8-2.1,2.7c-.8.9-1.6,1.7-2.4,2.5-.8.8-1.7,1.5-2.6,2.2-.9.7-1.9,1.4-2.8,2s-2,1.2-3,1.7c-1,.5-2.1,1-3.2,1.4-1.1.4-2.2.8-3.3,1.1-1.1.3-2.2.5-3.4.7-1.1.2-2.3.3-3.4.4-1.2,0-2.3,0-3.5,0-1.2,0-2.3-.1-3.4-.3s-2.3-.4-3.4-.6-2.2-.6-3.3-.9-2.2-.8-3.2-1.3c-1-.5-2.1-1-3.1-1.6-1-.6-2-1.2-2.9-1.9-.9-.7-1.8-1.4-2.7-2.1-.9-.8-1.7-1.6-2.5-2.4-.8-.8-1.5-1.7-2.2-2.6-.7-.9-1.4-1.9-2-2.8-.6-1-1.2-2-1.7-3-.5-1-1-2.1-1.4-3.2s-.8-2.2-1.1-3.3c-.3-1.1-.5-2.2-.7-3.4-.2-1.1-.3-2.3-.4-3.4,0-1.2,0-2.3,0-3.5s.1-2.3.3-3.4c.1-1.1.4-2.3.6-3.4.3-1.1.6-2.2.9-3.3.4-1.1.8-2.2,1.3-3.2.5-1,1-2.1,1.6-3.1.6-1,1.2-2,1.9-2.9s1.4-1.8,2.1-2.7c.8-.9,1.6-1.7,2.4-2.5.8-.8,1.7-1.5,2.6-2.2.9-.7,1.9-1.4,2.8-2s2-1.2,3-1.7c1-.5,2.1-1,3.2-1.4,1.1-.4,2.2-.8,3.3-1.1,1.1-.3,2.2-.5,3.4-.7,1.1-.2,2.3-.3,3.4-.4,1.2,0,2.3,0,3.5,0,1.2,0,2.3.1,3.4.3,1.1.1,2.3.4,3.4.6,1.1.3,2.2.6,3.3.9s2.2.8,3.2,1.3c1.1.5,2.1,1,3.1,1.6,1,.6,2,1.2,2.9,1.9s1.8,1.4,2.7,2.1,1.7,1.6,2.5,2.4c.8.8,1.5,1.7,2.2,2.6.7.9,1.4,1.9,2,2.8s1.2,2,1.7,3c.5,1,1,2.1,1.4,3.2s.8,2.2,1.1,3.3Z"/>
    <path class="cls-10" d="M463,256.8c-1.4,6-7.5,9.8-13.5,8.4-6-1.4-9.8-7.5-8.4-13.5,1.4-6,7.5-9.8,13.5-8.4,5.9,1.4,9.7,7.5,8.4,13.5Z"/>
  </g>
  <path id="mouth" class="cls-9" d="M310.2,287.2c-6-1.4-11.3-3.3-15.7-5.6-16.3-7.9-26-19.7-27.4-22.2-1.7-3-.3-5.4,1-6.2,1.3-.9,3.8-1.9,6.8,1.4.5.6,1,1.3,1.1,2.1,3,3.5,10.8,11.4,22.4,17,18.1,8.9,37.3,8.7,56.8-.5,2.2-1.1,4.8-.2,5.9,2.1s.2,4.8-2.1,5.9c-18.9,8.7-35.5,9-48.7,6Z"/>
  <path id="pinkk" class="cls-3" d="M122,222.5c1.1.3,2.1.5,3.2.8,1,.3,2.1.7,3.1,1s2,.8,3,1.2,1.9.9,2.8,1.4c.9.5,1.8,1,2.7,1.6.9.6,1.7,1.1,2.5,1.7.8.6,1.6,1.2,2.3,1.9.7.6,1.4,1.3,2,2s1.2,1.4,1.8,2.1c.5.7,1.1,1.4,1.5,2.2.5.7.9,1.5,1.2,2.2s.7,1.5.9,2.3c.3.8.5,1.5.6,2.3.2.8.3,1.5.3,2.3,0,.8,0,1.5,0,2.2,0,.7-.2,1.5-.3,2.2-.2.7-.4,1.4-.7,2.1-.3.7-.6,1.4-1,2s-.8,1.3-1.3,1.9c-.5.6-1,1.2-1.5,1.8-.6.6-1.2,1.1-1.8,1.6-.6.5-1.3,1-2.1,1.5-.7.5-1.5.9-2.3,1.3-.8.4-1.6.8-2.5,1.1-.9.3-1.8.6-2.7.9-.9.3-1.9.5-2.9.7-1,.2-2,.4-3,.5-1,.1-2.1.2-3.1.3s-2.1,0-3.2,0c-1.1,0-2.1,0-3.2-.2-1.1,0-2.2-.2-3.2-.4-1.1-.2-2.2-.4-3.2-.6-1.1-.3-2.1-.5-3.2-.8-1-.3-2.1-.7-3.1-1s-2-.8-3-1.2-1.9-.9-2.8-1.4c-.9-.5-1.8-1-2.7-1.6-.9-.6-1.7-1.1-2.5-1.7s-1.6-1.2-2.3-1.9c-.7-.6-1.4-1.3-2-2s-1.2-1.4-1.8-2.1c-.6-.7-1.1-1.4-1.5-2.2-.5-.7-.9-1.5-1.2-2.2s-.7-1.5-.9-2.3c-.3-.8-.5-1.5-.6-2.3-.2-.8-.3-1.5-.3-2.3,0-.8,0-1.5,0-2.2,0-.7.2-1.5.3-2.2s.4-1.4.7-2.1.6-1.4,1-2,.8-1.3,1.3-1.9,1-1.2,1.5-1.8c.6-.6,1.2-1.1,1.8-1.6.7-.5,1.3-1,2.1-1.5.7-.5,1.5-.9,2.3-1.3.8-.4,1.6-.8,2.5-1.1.9-.3,1.8-.6,2.7-.9.9-.3,1.9-.5,2.9-.7,1-.2,2-.4,3-.5,1-.1,2.1-.2,3.1-.3,1.1,0,2.1,0,3.2,0,1.1,0,2.1,0,3.2.2,1.1,0,2.2.2,3.2.4,1.1.2,2.2.4,3.2.6ZM498.4,308.9c1.1.2,2.1.5,3.2.8s2.1.7,3.1,1,2,.8,3,1.2,1.9.9,2.8,1.4c.9.5,1.8,1,2.7,1.6.9.6,1.7,1.1,2.5,1.7s1.6,1.2,2.3,1.9c.7.6,1.4,1.3,2,2,.6.7,1.2,1.4,1.8,2.1.6.7,1.1,1.4,1.5,2.2.5.7.9,1.5,1.2,2.2.4.8.7,1.5.9,2.3.3.8.5,1.5.6,2.3s.3,1.5.3,2.3c0,.8,0,1.5,0,2.2,0,.7-.2,1.5-.3,2.2-.2.7-.4,1.4-.7,2.1-.3.7-.6,1.4-1,2-.4.7-.8,1.3-1.3,1.9-.5.6-1,1.2-1.5,1.8-.6.6-1.2,1.1-1.8,1.6-.7.5-1.3,1-2.1,1.5-.7.5-1.5.9-2.3,1.3-.8.4-1.6.8-2.5,1.1-.9.3-1.8.6-2.7.9-.9.3-1.9.5-2.9.7-1,.2-2,.4-3,.5-1,.1-2.1.2-3.1.3-1,0-2.1,0-3.2,0-1.1,0-2.1,0-3.2-.2-1.1,0-2.2-.2-3.2-.4-1.1-.2-2.2-.4-3.2-.6-1.1-.2-2.1-.5-3.2-.8-1-.3-2.1-.7-3.1-1-1-.4-2-.8-3-1.2s-1.9-.9-2.8-1.4c-.9-.5-1.8-1-2.7-1.6-.9-.6-1.7-1.1-2.5-1.7s-1.6-1.2-2.3-1.9c-.7-.6-1.4-1.3-2-2-.6-.7-1.2-1.4-1.8-2.1-.6-.7-1.1-1.4-1.5-2.2s-.9-1.5-1.2-2.2c-.4-.8-.7-1.5-.9-2.3-.3-.8-.5-1.5-.6-2.3-.2-.8-.3-1.5-.3-2.3,0-.8,0-1.5,0-2.2,0-.7.2-1.5.3-2.2.2-.7.4-1.4.7-2.1.3-.7.6-1.4,1-2,.4-.7.8-1.3,1.3-1.9.5-.6,1-1.2,1.5-1.8.6-.6,1.2-1.1,1.8-1.6.7-.5,1.3-1,2.1-1.5.7-.5,1.5-.9,2.3-1.3.8-.4,1.6-.8,2.5-1.1.9-.3,1.8-.6,2.7-.9s1.9-.5,2.9-.7c1-.2,2-.4,3-.5,1-.1,2.1-.2,3.1-.3,1,0,2.1,0,3.2,0,1.1,0,2.1,0,3.2.2,1.1.1,2.2.2,3.2.4,1.1.2,2.2.4,3.2.6Z"/>
</svg>