<svg xmlns="http://www.w3.org/2000/svg" xmlns:xlink="http://www.w3.org/1999/xlink" width="300" zoomAndPan="magnify" viewBox="0 0 224.87999 149.999998" height="200" preserveAspectRatio="xMidYMid meet" version="1.0"><defs><clipPath id="54cf55ce6a"><path d="M 47.253906 82.894531 L 149.144531 82.894531 L 149.144531 143.554688 L 47.253906 143.554688 Z M 47.253906 82.894531 " clip-rule="nonzero"/></clipPath><clipPath id="70687c9151"><path d="M 75.671875 76.503906 L 149.109375 76.503906 L 149.109375 95.675781 L 75.671875 95.675781 Z M 75.671875 76.503906 " clip-rule="nonzero"/></clipPath><clipPath id="0f5cf5c3d4"><path d="M 121.128906 9.746094 L 160.121094 9.746094 L 160.121094 48.738281 L 121.128906 48.738281 Z M 121.128906 9.746094 " clip-rule="nonzero"/></clipPath></defs><g clip-path="url(#54cf55ce6a)"><path fill="#38393a" d="M 70.941406 123.261719 C 67.113281 116.402344 64.515625 108.316406 63.503906 99.433594 C 59.566406 95.605469 52.453125 93.871094 56.5 106.148438 C 59.242188 114.523438 66.570312 120.375 70.941406 123.261719 Z M 50.542969 89.46875 C 57.292969 84.304688 63.070312 91.238281 63.070312 91.238281 L 63.140625 91.238281 C 63.070312 90.949219 63.070312 90.660156 63.070312 90.332031 C 63.070312 87.589844 65.488281 85.0625 69.675781 82.894531 C 68.523438 84.160156 67.871094 85.496094 67.871094 86.902344 C 67.871094 94.703125 87.621094 101.019531 111.957031 101.019531 C 136.292969 101.019531 141.636719 98.347656 149.433594 94.339844 C 144.054688 100.191406 127.15625 104.453125 107.15625 104.453125 C 87.152344 104.453125 83.359375 102.789062 75.347656 100.117188 C 75.597656 118.351562 82.457031 133.914062 92.929688 143.554688 C 86.25 140.847656 80.292969 136.1875 75.488281 130.085938 C 48.808594 120.519531 42.488281 95.675781 50.542969 89.46875 " fill-opacity="1" fill-rule="nonzero"/></g><g clip-path="url(#70687c9151)"><path fill="#38393a" d="M 145.101562 89.46875 C 145.101562 83.222656 127.265625 78.128906 105.3125 78.128906 C 83.359375 78.128906 83 79.574219 75.707031 81.886719 C 82.746094 78.707031 95.203125 76.613281 109.355469 76.613281 C 131.347656 76.613281 149.144531 81.703125 149.144531 87.949219 C 149.144531 94.195312 145.28125 93.511719 138.964844 95.53125 C 142.863281 93.765625 145.136719 91.707031 145.136719 89.46875 " fill-opacity="1" fill-rule="nonzero"/></g><path fill="#38393a" d="M 135.824219 52.0625 L 144.558594 52.0625 L 144.558594 87.554688 L 135.824219 87.554688 Z M 135.824219 52.0625 " fill-opacity="1" fill-rule="nonzero"/><path fill="#38393a" d="M 78.488281 41.808594 L 79.316406 51.953125 L 78.882812 50.617188 C 79.859375 48.453125 81.195312 46.644531 82.964844 45.09375 C 84.695312 43.578125 86.539062 42.386719 88.417969 41.589844 C 90.292969 40.761719 91.917969 40.363281 93.21875 40.363281 L 92.785156 48.992188 C 90.078125 48.8125 87.695312 49.316406 85.707031 50.507812 C 83.6875 51.699219 82.132812 53.289062 81.015625 55.238281 C 79.894531 57.226562 79.316406 59.320312 79.316406 61.59375 L 79.316406 77.261719 L 70.6875 77.261719 L 70.6875 41.773438 L 78.488281 41.773438 Z M 78.488281 41.808594 " fill-opacity="1" fill-rule="nonzero"/><path fill="#38393a" d="M 116.144531 88.960938 C 112.933594 88.960938 110.117188 88.3125 107.734375 86.976562 C 105.3125 85.640625 103.398438 83.980469 101.917969 81.921875 L 102.859375 79.464844 L 102.859375 88.09375 L 94.121094 88.09375 L 94.121094 22.273438 L 102.75 22.273438 L 102.75 60.292969 L 102.570312 57.152344 C 103.941406 55.347656 105.890625 53.867188 108.492188 52.746094 C 111.089844 51.628906 113.980469 51.050781 117.226562 51.050781 C 120.476562 51.050781 123.292969 51.808594 125.894531 53.324219 C 128.53125 54.84375 130.625 57.007812 132.175781 59.789062 C 133.730469 62.570312 134.488281 65.890625 134.488281 69.753906 C 134.488281 73.617188 133.65625 77.121094 131.960938 80.007812 C 130.261719 82.894531 128.023438 85.097656 125.242188 86.613281 C 122.464844 88.132812 119.394531 88.890625 116.144531 88.890625 Z M 114.269531 81.558594 C 116.398438 81.558594 118.347656 81.054688 120.082031 80.042969 C 121.8125 79.03125 123.1875 77.625 124.195312 75.820312 C 125.207031 74.015625 125.714844 71.992188 125.714844 69.71875 C 125.714844 67.441406 125.207031 65.527344 124.195312 63.796875 C 123.1875 62.0625 121.8125 60.65625 120.082031 59.609375 C 118.347656 58.5625 116.433594 58.054688 114.269531 58.054688 C 112.101562 58.054688 110.691406 58.378906 109.105469 59.066406 C 107.515625 59.753906 106.179688 60.691406 105.132812 61.847656 C 104.050781 63.039062 103.292969 64.410156 102.859375 66 L 102.859375 73.542969 C 103.328125 75.132812 104.085938 76.503906 105.132812 77.734375 C 106.214844 78.960938 107.515625 79.898438 109.070312 80.585938 C 110.621094 81.269531 112.355469 81.597656 114.269531 81.597656 Z M 114.269531 81.558594 " fill-opacity="1" fill-rule="nonzero"/><path fill="#38393a" d="M 154.816406 36.71875 L 163.550781 36.71875 L 163.550781 52.386719 L 173.046875 52.386719 L 173.046875 59.246094 L 163.550781 59.246094 L 163.550781 87.804688 L 154.816406 87.804688 L 154.816406 59.246094 L 147.230469 53.035156 L 140.660156 47.332031 L 154.851562 52.386719 L 154.851562 36.71875 Z M 154.816406 36.71875 " fill-opacity="1" fill-rule="nonzero"/><path fill="#38393a" d="M 172.941406 63.289062 C 171.132812 63.289062 169.582031 62.714844 168.28125 61.558594 C 166.980469 60.402344 166.332031 58.707031 166.332031 56.503906 L 166.332031 52.785156 L 173.046875 52.785156 L 173.046875 53.976562 C 173.046875 54.949219 173.085938 55.5625 173.515625 55.816406 C 173.988281 56.070312 174.707031 56.214844 175.71875 56.214844 L 198.429688 56.214844 L 177.488281 86.363281 L 175.792969 84.59375 L 198.070312 84.59375 L 198.070312 91.707031 L 164.597656 91.707031 C 169.183594 84.414062 177.417969 72.859375 186.046875 60.871094 L 187.417969 63.328125 L 172.941406 63.328125 Z M 172.941406 63.289062 " fill-opacity="1" fill-rule="nonzero"/><g clip-path="url(#0f5cf5c3d4)"><path fill="#e11f26" d="M 156.871094 27.796875 L 158.785156 21.660156 L 152.539062 23.609375 C 152.46875 23.609375 152.359375 23.609375 152.324219 23.503906 C 151.925781 22.527344 151.492188 21.480469 151.058594 20.433594 L 145.894531 27.4375 C 145.859375 27.511719 145.753906 27.546875 145.679688 27.511719 C 145.609375 27.511719 145.570312 27.402344 145.570312 27.328125 L 146.546875 21.515625 C 146.945312 19.132812 147.339844 16.75 147.738281 14.367188 C 146.546875 14.835938 145.355469 15.269531 144.234375 15.738281 C 144.164062 15.738281 144.054688 15.738281 144.019531 15.667969 L 140.550781 9.78125 L 137.160156 15.667969 C 137.121094 15.738281 137.015625 15.777344 136.941406 15.738281 C 135.824219 15.304688 134.632812 14.835938 133.441406 14.402344 C 134.199219 18.699219 134.957031 23.03125 135.714844 27.328125 C 135.714844 27.402344 135.714844 27.472656 135.605469 27.511719 C 135.535156 27.511719 135.425781 27.511719 135.390625 27.4375 L 130.152344 20.46875 C 129.722656 21.515625 129.324219 22.527344 128.925781 23.539062 C 128.925781 23.609375 128.78125 23.683594 128.710938 23.648438 L 122.464844 21.769531 L 124.449219 27.90625 C 124.449219 27.980469 124.449219 28.085938 124.339844 28.125 C 123.332031 28.519531 122.285156 28.917969 121.199219 29.351562 C 124.667969 31.84375 128.167969 34.296875 131.671875 36.789062 L 132.25 37.1875 C 132.320312 37.222656 132.320312 37.292969 132.320312 37.367188 L 131.164062 42.097656 L 140.191406 40.21875 C 140.191406 40.21875 140.191406 40.21875 140.226562 40.21875 C 140.265625 40.21875 140.300781 40.21875 140.335938 40.253906 C 140.371094 40.253906 140.410156 40.328125 140.410156 40.398438 L 140.082031 48.703125 L 141.417969 48.703125 C 141.417969 48.703125 141.023438 40.398438 141.023438 40.398438 C 141.023438 40.328125 141.023438 40.292969 141.09375 40.253906 C 141.128906 40.253906 141.203125 40.21875 141.238281 40.21875 L 150.300781 42.023438 L 149.109375 37.292969 C 149.109375 37.222656 149.109375 37.148438 149.183594 37.113281 L 160.15625 29.171875 C 159.109375 28.738281 158.027344 28.339844 157.015625 27.941406 C 156.945312 27.941406 156.871094 27.796875 156.910156 27.726562 " fill-opacity="1" fill-rule="nonzero"/></g><path stroke-linecap="butt" transform="matrix(0.361057, 0, 0, 0.361057, 2.917707, -24.91562)" fill-opacity="1" fill="#433415" fill-rule="nonzero" stroke-linejoin="miter" d="M 352.697558 262.298241 C 352.697558 264.894782 352.448723 267.480504 351.940233 270.022951 C 351.431744 272.576216 350.685238 275.053749 349.689898 277.455549 C 348.694557 279.85735 347.472019 282.140142 346.022283 284.303927 C 344.583367 286.467711 342.938891 288.458392 341.099674 290.297609 C 339.260457 292.136826 337.258957 293.781302 335.095173 295.231037 C 332.942207 296.669954 330.659415 297.892492 328.257615 298.887832 C 325.855814 299.883173 323.378281 300.629679 320.825016 301.138168 C 318.27175 301.646657 315.696847 301.895493 313.100306 301.895493 C 310.503765 301.895493 307.928861 301.646657 305.375596 301.138168 C 302.822331 300.629679 300.344798 299.883173 297.942997 298.887832 C 295.541197 297.892492 293.258404 296.669954 291.09462 295.231037 C 288.941655 293.781302 286.940154 292.136826 285.100938 290.297609 C 283.261721 288.458392 281.617245 286.467711 280.178328 284.303927 C 278.728593 282.140142 277.506055 279.85735 276.510714 277.455549 C 275.515373 275.053749 274.768868 272.576216 274.260378 270.022951 C 273.751889 267.480504 273.503054 264.894782 273.503054 262.298241 C 273.503054 259.7017 273.751889 257.126796 274.260378 254.573531 C 274.768868 252.020266 275.515373 249.542733 276.510714 247.140932 C 277.506055 244.739131 278.728593 242.456339 280.178328 240.303374 C 281.617245 238.13959 283.261721 236.138089 285.100938 234.298872 C 286.940154 232.459656 288.941655 230.81518 291.09462 229.376263 C 293.258404 227.926528 295.541197 226.70399 297.942997 225.719468 C 300.344798 224.724127 302.822331 223.966803 305.375596 223.458313 C 307.928861 222.949824 310.503765 222.700989 313.100306 222.700989 C 315.696847 222.700989 318.27175 222.949824 320.825016 223.458313 C 323.378281 223.966803 325.855814 224.724127 328.257615 225.719468 C 330.659415 226.70399 332.942207 227.926528 335.095173 229.376263 C 337.258957 230.81518 339.260457 232.459656 341.099674 234.298872 C 342.938891 236.138089 344.583367 238.13959 346.022283 240.303374 C 347.472019 242.456339 348.694557 244.739131 349.689898 247.140932 C 350.685238 249.542733 351.431744 252.020266 351.940233 254.573531 C 352.448723 257.126796 352.697558 259.7017 352.697558 262.298241 Z M 352.697558 262.298241 " stroke="#ffffff" stroke-width="0.8" stroke-opacity="1" stroke-miterlimit="10"/><path fill="#ffffff" d="M 113.363281 63.617188 C 113.363281 64.117188 113.269531 64.601562 113.078125 65.066406 C 112.882812 65.53125 112.609375 65.941406 112.253906 66.296875 C 111.898438 66.652344 111.488281 66.925781 111.023438 67.117188 C 110.558594 67.308594 110.078125 67.40625 109.574219 67.40625 C 109.070312 67.40625 108.585938 67.308594 108.125 67.117188 C 107.660156 66.925781 107.25 66.652344 106.894531 66.296875 C 106.539062 65.941406 106.265625 65.53125 106.070312 65.066406 C 105.878906 64.601562 105.78125 64.117188 105.78125 63.617188 C 105.78125 63.113281 105.878906 62.628906 106.070312 62.164062 C 106.265625 61.699219 106.539062 61.289062 106.894531 60.933594 C 107.25 60.578125 107.660156 60.304688 108.125 60.113281 C 108.585938 59.921875 109.070312 59.824219 109.574219 59.824219 C 110.078125 59.824219 110.558594 59.921875 111.023438 60.113281 C 111.488281 60.304688 111.898438 60.578125 112.253906 60.933594 C 112.609375 61.289062 112.882812 61.699219 113.078125 62.164062 C 113.269531 62.628906 113.363281 63.113281 113.363281 63.617188 Z M 113.363281 63.617188 " fill-opacity="1" fill-rule="nonzero"/><path fill="#433415" d="M 67.078125 57.074219 C 67.167969 57.855469 67.21875 58.636719 67.230469 59.417969 C 67.246094 60.203125 67.21875 60.984375 67.15625 61.765625 C 67.09375 62.546875 66.992188 63.324219 66.855469 64.097656 C 66.714844 64.867188 66.539062 65.628906 66.324219 66.382812 C 66.109375 67.136719 65.859375 67.878906 65.574219 68.609375 C 65.289062 69.339844 64.964844 70.050781 64.609375 70.75 C 64.253906 71.445312 63.863281 72.125 63.441406 72.785156 C 63.015625 73.441406 62.5625 74.078125 62.078125 74.695312 C 61.59375 75.308594 61.078125 75.894531 60.535156 76.460938 C 59.992188 77.023438 59.421875 77.558594 58.828125 78.066406 C 58.230469 78.574219 57.613281 79.050781 56.96875 79.496094 C 56.328125 79.941406 55.664062 80.355469 54.984375 80.738281 C 54.300781 81.117188 53.601562 81.464844 52.882812 81.777344 C 52.167969 82.089844 51.4375 82.367188 50.691406 82.605469 C 49.949219 82.847656 49.195312 83.046875 48.429688 83.214844 C 47.667969 83.378906 46.894531 83.507812 46.121094 83.597656 C 45.34375 83.6875 44.5625 83.738281 43.78125 83.753906 C 43 83.765625 42.222656 83.738281 41.441406 83.675781 C 40.664062 83.613281 39.886719 83.511719 39.121094 83.371094 C 38.351562 83.230469 37.589844 83.050781 36.835938 82.835938 C 36.085938 82.621094 35.347656 82.371094 34.621094 82.082031 C 33.890625 81.796875 33.179688 81.472656 32.484375 81.113281 C 31.789062 80.757812 31.113281 80.363281 30.457031 79.941406 C 29.796875 79.515625 29.164062 79.058594 28.550781 78.574219 C 27.9375 78.085938 27.351562 77.570312 26.789062 77.023438 C 26.226562 76.480469 25.691406 75.90625 25.183594 75.308594 C 24.679688 74.710938 24.203125 74.089844 23.757812 73.445312 C 23.3125 72.800781 22.898438 72.136719 22.519531 71.453125 C 22.136719 70.765625 21.792969 70.066406 21.480469 69.347656 C 21.167969 68.628906 20.894531 67.894531 20.652344 67.148438 C 20.414062 66.402344 20.210938 65.644531 20.042969 64.878906 C 19.878906 64.113281 19.75 63.339844 19.660156 62.5625 C 19.570312 61.78125 19.519531 61 19.503906 60.21875 C 19.492188 59.433594 19.515625 58.652344 19.578125 57.871094 C 19.644531 57.089844 19.742188 56.3125 19.882812 55.539062 C 20.023438 54.769531 20.199219 54.007812 20.414062 53.253906 C 20.625 52.5 20.875 51.757812 21.164062 51.027344 C 21.449219 50.296875 21.769531 49.585938 22.128906 48.886719 C 22.484375 48.191406 22.875 47.511719 23.296875 46.851562 C 23.71875 46.195312 24.171875 45.558594 24.660156 44.945312 C 25.144531 44.328125 25.660156 43.742188 26.203125 43.175781 C 26.746094 42.613281 27.3125 42.078125 27.910156 41.570312 C 28.503906 41.0625 29.125 40.585938 29.765625 40.140625 C 30.410156 39.695312 31.070312 39.28125 31.753906 38.898438 C 32.4375 38.519531 33.136719 38.171875 33.855469 37.859375 C 34.570312 37.546875 35.300781 37.269531 36.042969 37.03125 C 36.789062 36.789062 37.542969 36.589844 38.304688 36.421875 C 39.070312 36.257812 39.839844 36.128906 40.617188 36.039062 C 41.394531 35.949219 42.171875 35.898438 42.953125 35.882812 C 43.734375 35.871094 44.515625 35.898438 45.296875 35.960938 C 46.074219 36.023438 46.847656 36.125 47.617188 36.265625 C 48.386719 36.40625 49.148438 36.585938 49.898438 36.800781 C 50.652344 37.015625 51.390625 37.265625 52.117188 37.554688 C 52.84375 37.839844 53.554688 38.164062 54.253906 38.523438 C 54.949219 38.878906 55.625 39.273438 56.28125 39.695312 C 56.9375 40.121094 57.574219 40.578125 58.1875 41.0625 C 58.800781 41.550781 59.386719 42.066406 59.949219 42.613281 C 60.511719 43.15625 61.046875 43.730469 61.550781 44.328125 C 62.058594 44.925781 62.535156 45.546875 62.980469 46.191406 C 63.425781 46.835938 63.839844 47.5 64.21875 48.183594 C 64.597656 48.871094 64.945312 49.570312 65.257812 50.289062 C 65.566406 51.011719 65.84375 51.742188 66.082031 52.488281 C 66.324219 53.234375 66.527344 53.992188 66.691406 54.757812 C 66.859375 55.523438 66.984375 56.296875 67.078125 57.074219 Z M 67.078125 57.074219 " fill-opacity="1" fill-rule="nonzero"/><path fill="#ffffff" d="M 55.847656 44.417969 C 55.976562 44.816406 56.066406 45.222656 56.117188 45.640625 C 56.167969 46.058594 56.179688 46.472656 56.148438 46.890625 C 56.117188 47.308594 56.042969 47.722656 55.933594 48.125 C 55.820312 48.527344 55.671875 48.917969 55.480469 49.292969 C 55.292969 49.664062 55.070312 50.015625 54.8125 50.34375 C 54.554688 50.675781 54.269531 50.976562 53.953125 51.25 C 53.636719 51.519531 53.296875 51.757812 52.933594 51.964844 C 52.570312 52.167969 52.1875 52.335938 51.792969 52.464844 C 51.394531 52.597656 50.992188 52.683594 50.574219 52.734375 C 50.160156 52.785156 49.746094 52.792969 49.328125 52.757812 C 48.914062 52.726562 48.503906 52.652344 48.101562 52.539062 C 47.699219 52.425781 47.3125 52.273438 46.941406 52.082031 C 46.566406 51.894531 46.214844 51.667969 45.886719 51.40625 C 45.558594 51.148438 45.257812 50.859375 44.988281 50.539062 C 44.714844 50.222656 44.476562 49.878906 44.269531 49.511719 C 44.066406 49.148438 43.898438 48.765625 43.765625 48.367188 C 43.636719 47.96875 43.546875 47.558594 43.496094 47.144531 C 43.445312 46.726562 43.433594 46.308594 43.46875 45.890625 C 43.5 45.472656 43.570312 45.0625 43.683594 44.660156 C 43.792969 44.253906 43.945312 43.867188 44.132812 43.492188 C 44.320312 43.117188 44.542969 42.765625 44.800781 42.4375 C 45.058594 42.109375 45.34375 41.808594 45.660156 41.535156 C 45.976562 41.261719 46.316406 41.023438 46.679688 40.820312 C 47.042969 40.613281 47.425781 40.445312 47.820312 40.316406 C 48.21875 40.1875 48.625 40.097656 49.039062 40.050781 C 49.453125 40 49.867188 39.992188 50.285156 40.023438 C 50.699219 40.058594 51.109375 40.128906 51.511719 40.246094 C 51.914062 40.359375 52.300781 40.511719 52.675781 40.699219 C 53.046875 40.890625 53.398438 41.117188 53.726562 41.375 C 54.054688 41.636719 54.355469 41.925781 54.628906 42.242188 C 54.898438 42.5625 55.136719 42.90625 55.34375 43.269531 C 55.550781 43.636719 55.714844 44.019531 55.847656 44.417969 Z M 55.847656 44.417969 " fill-opacity="1" fill-rule="nonzero"/></svg>