<?xml version="1.0" encoding="UTF-8"?>
<svg id="Layer_1" data-name="Layer 1" xmlns="http://www.w3.org/2000/svg" version="1.1" xmlns:xlink="http://www.w3.org/1999/xlink" viewBox="0 0 600 300">
  <defs>
    <style>
      .cls-1 {
        fill: url(#linear-gradient);
      }

      .cls-1, .cls-2, .cls-3, .cls-4, .cls-5, .cls-6 {
        stroke-width: 0px;
      }

      .cls-7 {
        fill: #231f20;
        stroke-width: 2px;
      }

      .cls-7, .cls-8 {
        stroke: #231f20;
      }

      .cls-7, .cls-8, .cls-9 {
        stroke-miterlimit: 10;
      }

      .cls-2, .cls-8 {
        fill: none;
      }

      .cls-8 {
        stroke-width: .2px;
      }

      .cls-9 {
        fill: url(#linear-gradient-2);
        stroke: #fff;
        stroke-width: .8px;
      }

      .cls-3 {
        fill: url(#linear-gradient-3);
      }

      .cls-10 {
        clip-path: url(#clippath);
      }

      .cls-4 {
        fill: #efe3bb;
      }

      .cls-5 {
        fill: #38393a;
      }

      .cls-6 {
        fill: #fff;
      }
    </style>
    <clipPath id="clippath">
      <rect class="cls-2" x="343.4" y="14" width="123.7" height="123.7"/>
    </clipPath>
    <linearGradient id="linear-gradient" x1="343.5" y1="75.8" x2="467.1" y2="75.8" gradientUnits="userSpaceOnUse">
      <stop offset=".2" stop-color="#e11f26"/>
      <stop offset=".3" stop-color="#e22b30"/>
      <stop offset=".3" stop-color="#e64d4c"/>
      <stop offset=".4" stop-color="#ed8379"/>
      <stop offset=".5" stop-color="#f5bfab"/>
      <stop offset=".6" stop-color="#f1a192"/>
      <stop offset=".7" stop-color="#e75553"/>
      <stop offset=".8" stop-color="#e11f26"/>
    </linearGradient>
    <linearGradient id="linear-gradient-2" x1="336.8" y1="244.4" x2="427.5" y2="244.4" gradientTransform="translate(118.3 -198.2) rotate(30)" gradientUnits="userSpaceOnUse">
      <stop offset="0" stop-color="#fff"/>
      <stop offset="0" stop-color="#e8e6e2"/>
      <stop offset=".3" stop-color="#a29a8b"/>
      <stop offset=".4" stop-color="#6e634b"/>
      <stop offset=".6" stop-color="#4f4124"/>
      <stop offset=".6" stop-color="#433415"/>
    </linearGradient>
    <linearGradient id="linear-gradient-3" x1="414.6" y1="358.9" x2="566.5" y2="358.9" gradientTransform="translate(674.5 361.8) rotate(161.9)" gradientUnits="userSpaceOnUse">
      <stop offset="0" stop-color="#fff"/>
      <stop offset=".1" stop-color="#d0ccc4"/>
      <stop offset=".3" stop-color="#847b67"/>
      <stop offset=".5" stop-color="#55472b"/>
      <stop offset=".6" stop-color="#433415"/>
    </linearGradient>
  </defs>
  <path class="cls-4" d="M383.7,152.2h27.7v112.6h-27.7v-112.6Z"/>
  <path class="cls-5" d="M390,148.2h27.7v112.6h-27.7v-112.6Z"/>
  <path class="cls-4" d="M200.1,120.7l2.7,32.2-.5-5.7c7.9-1.1,10.2-9.9,15.7-14.8,4.2-6.4,8.5-11.3,14.5-13.9,6-2.6,11.1-3.9,15.2-3.9l-1.1,23c-8.6-.5-16.3,5.5-22.7,9.3-6.4,3.8-11.3,8.8-14.9,15-3.6,6.3-5.4,13-5.4,20.2v49.7h-27.4v-112.6l23.8,1.4Z"/>
  <path class="cls-5" d="M208.1,115.7l2.7,32.2-1.4-4.3c3-6.8,7.4-12.6,12.9-17.5,5.6-4.8,11.3-8.5,17.3-11.1,6-2.6,11.1-3.9,15.2-3.9l-1.3,27.4c-8.6-.5-16.1,1.1-22.5,4.8-6.4,3.8-11.3,8.8-14.9,15-3.6,6.3-5.4,13-5.4,20.2v49.7h-27.4v-112.6h24.7Z"/>
  <path class="cls-4" d="M321.5,269.3c-10.2,0-19.1-2.1-26.7-6.3-7.6-4.2-13.8-9.5-18.4-16l3-7.8v27.4h-27.7V57.7h27.4v120.7l-.5-9.9c4.3-5.7,10.6-10.4,18.8-14,8.2-3.6,17.5-5.4,27.7-5.4s19.2,2.4,27.5,7.3c8.3,4.8,15,11.7,19.9,20.6,4.9,8.9,7.4,19.4,7.4,31.6s-2.7,23.4-8.1,32.5c-5.4,9.1-12.5,16.1-21.4,21-8.9,4.8-18.5,7.3-28.9,7.3ZM315.6,245.9c6.8,0,12.9-1.6,18.4-4.8,5.5-3.2,9.8-7.7,13-13.4,3.2-5.7,4.8-12.2,4.8-19.4s-1.6-13.3-4.8-18.8c-3.2-5.6-7.6-10-13-13.3-5.5-3.3-11.6-5-18.4-5s-11.4,1.1-16.4,3.2c-5,2.2-9.2,5.1-12.6,8.9-3.4,3.8-5.8,8.2-7.3,13.2v23.9c1.4,5,3.9,9.4,7.3,13.3,3.4,3.9,7.6,6.9,12.5,9,4.9,2.2,10.4,3.2,16.5,3.2Z"/>
  <path class="cls-5" d="M327.5,265.3c-10.2,0-19.1-2.1-26.7-6.3-7.6-4.2-13.8-9.5-18.4-16l3-7.8v27.4h-27.7V53.7h27.4v120.7l-.5-9.9c4.3-5.7,10.6-10.4,18.8-14,8.2-3.6,17.5-5.4,27.7-5.4s19.2,2.4,27.5,7.3c8.3,4.8,15,11.7,19.9,20.6,4.9,8.9,7.4,19.4,7.4,31.6s-2.7,23.4-8.1,32.5c-5.4,9.1-12.5,16.1-21.4,21-8.9,4.8-18.5,7.3-28.9,7.3ZM321.6,241.9c6.8,0,12.9-1.6,18.4-4.8,5.5-3.2,9.8-7.7,13-13.4,3.2-5.7,4.8-12.2,4.8-19.4s-1.6-13.3-4.8-18.8c-3.2-5.6-7.6-10-13-13.3-5.5-3.3-11.6-5-18.4-5s-11.4,1.1-16.4,3.2c-5,2.2-9.2,5.1-12.6,8.9-3.4,3.8-5.8,8.2-7.3,13.2v23.9c1.4,5,3.9,9.4,7.3,13.3,3.4,3.9,7.6,6.9,12.5,9,4.9,2.2,10.4,3.2,16.5,3.2Z"/>
  <path class="cls-4" d="M500.3,189.4c-5.7,0-10.7-1.8-14.8-5.5-4.1-3.7-6.2-9-6.2-16v-11.8h21.3v3.8c0,3.1.1,5,1.5,5.8,1.4.8,3.8,1.2,7,1.2h72l-66.4,95.7-5.4-5.6h70.7v22.6h-106.2c14.6-23.1,40.7-59.8,68-97.8l4.3,7.8h-46Z"/>
  <path class="cls-5" d="M507.7,183.8c-5.7,0-10.7-1.8-14.8-5.5-4.1-3.7-6.2-9-6.2-16v-11.8h21.3v3.8c0,3.1.1,5,1.5,5.8,1.4.8,3.8,1.2,7,1.2h72l-66.4,95.7-5.4-5.6h70.7v22.6h-106.2c14.6-23.1,40.7-59.8,68-97.8l4.3,7.8h-46Z"/>
  <path class="cls-4" d="M445.5,102h27.7v49.7h30.1v16.9h-30.1v95.4h-27.7v-90.6l-21.2-21.3-19-19,40.2,18.5v-49.7Z"/>
  <path class="cls-5" d="M450.3,99.5h27.7v49.7h30.1v21.8h-30.1v90.6h-27.7v-90.6l-24.1-19.7-20.9-18.1,45,16v-49.7Z"/>
  <g class="cls-10">
    <path class="cls-1" d="M456.8,71.2l6.1-19.5-19.8,6.1c-.3,0-.6,0-.7-.3-1.2-3.1-2.6-6.4-4-9.7l-16.4,22.2c-.2.2-.4.3-.7.2-.2-.1-.4-.4-.3-.6l3.1-18.4c1.3-7.6,2.5-15.1,3.8-22.7-3.8,1.4-7.6,2.9-11.1,4.4-.3.1-.6,0-.7-.2l-10.9-18.6-10.8,18.7c-.1.2-.4.4-.7.2-3.6-1.4-7.3-2.8-11.2-4.3,2.4,13.7,4.8,27.4,7.2,41,0,.3,0,.5-.3.6-.2.1-.5,0-.7-.2l-16.6-22.1c-1.4,3.3-2.7,6.6-3.9,9.8-.1.3-.4.4-.7.3l-19.8-6,6.3,19.4c0,.3,0,.6-.3.7-3.2,1.2-6.6,2.6-9.9,3.9,11.1,7.9,22.1,15.8,33.2,23.6l1.8,1.3c.2.1.3.4.2.6l-3.6,15,28.7-6s0,0,.1,0c.1,0,.3,0,.4.1.1.1.2.3.2.5l-1.1,26.3h4.3s-1.3-26.3-1.3-26.3c0-.2,0-.3.2-.5.1-.1.3-.2.5-.1l28.7,5.8-3.8-15c0-.2,0-.5.2-.6l34.8-25.2c-3.4-1.3-6.7-2.6-10-3.9-.3-.1-.4-.4-.3-.7h0Z"/>
  </g>
  <g id="Bubble">
    <circle class="cls-9" cx="327" cy="204.5" r="45.3"/>
    <circle class="cls-6" cx="306.7" cy="184.9" r="12.1"/>
  </g>
  <path class="cls-7" d="M481.4,293.6"/>
  <path class="cls-7" d="M270.6,57.3"/>
  <path class="cls-7" d="M492.9,119.8"/>
  <path class="cls-8" d="M502.4,265.3"/>
  <g id="Bubble-2" data-name="Bubble">
    <ellipse class="cls-4" cx="89.2" cy="173.2" rx="78.8" ry="79" transform="translate(-19.3 11.4) rotate(-6.6)"/>
  </g>
  <g id="Bubble-3" data-name="Bubble">
    <ellipse class="cls-3" cx="96.4" cy="172.9" rx="75.9" ry="75.7" transform="translate(-101.2 161.4) rotate(-57.5)"/>
    <ellipse class="cls-6" cx="117" cy="130.4" rx="20.2" ry="20.3" transform="translate(-34.7 42.7) rotate(-18.1)"/>
  </g>
</svg>