<?xml version="1.0" encoding="UTF-8"?>
<svg id="Pearl" xmlns="http://www.w3.org/2000/svg" version="1.1" viewBox="0 0 600 600">
  <defs>
    <style>
      .cls-1 {
        fill: #713a17;
      }

      .cls-1, .cls-2, .cls-3, .cls-4 {
        stroke-width: 0px;
      }

      .cls-2 {
        fill: #d48728;
      }

      .cls-3 {
        fill: #010101;
      }

      .cls-4 {
        fill: #fff;
      }

      #Pearl:hover #body {
        fill: #451606;
      }

      #Pearl:hover #highlight {
        fill: #713a17;
      }
      
      
      #Pearl:hover {
      filter: drop-shadow(20px 6px 10px rgb(98, 97, 97));
      animation: bounce 2s infinite;
      }
      
      @keyframes bounce {
      20%, 50%, 80%, to{
        transform: translateY(0);
      }

      40%{
        transform: translateY(-30px);
      }
      70%{
        transform: translateY(-15px);
      }
      90%{
        transform: translateY(-4px);
      }
      }
    </style>

<script>
const Pearl = document.querySelector("#Pearl");

function logIdPearl() {
    console.log("User clicked on" + this.id);
}

Pearl.addEventListener("click", logIdPearl);
</script>

  </defs>
  <path id="body" class="cls-1" d="M574.7,308c0,160.9-128.7,291.9-287.1,291.9S.2,468.9.2,308,128.8,16.3,287.6,16.3c158.4,0,287.1,130.6,287.1,291.8Z"/>
  <path id="highlight" class="cls-2" d="M449.3,139.1c-7.8,25.8-49.7,35.9-93.2,22.3-43.7-13.6-72.9-45.7-65.1-71.5,7.8-26,49.4-35.7,93.2-22.4,43.6,13.7,72.8,45.7,65.1,71.6ZM526.6,204.5c-3.6,12.3-23.7,17.1-44.3,10.5-21-6.4-35-21.6-31.4-34.2,4-12.4,24-16.9,44.6-10.5,21.1,6.5,35,21.7,31.1,34.1ZM298,503.7c-132.6,0-240.6-102.8-254.2-233.9-1,9.3-2.7,18.1-2.7,27.5,0,144.1,115,260.9,256.9,260.9s256.6-116.8,256.6-260.9-1.7-18.2-2.6-27.5c-13.7,131.1-121.5,233.9-253.9,233.9Z"/>
  <g id="eyes">
    <path class="cls-3" d="M192.4,187.3c1.3.4,2.6,1,3.8,1.6,1.3.6,2.5,1.2,3.7,2s2.4,1.5,3.5,2.4c1.1.9,2.2,1.8,3.3,2.7,1.1,1,2.1,2,3,3.1s1.9,2.2,2.7,3.4c.9,1.2,1.7,2.4,2.4,3.7.8,1.3,1.5,2.6,2.1,4,.6,1.3,1.2,2.7,1.7,4.2s1,2.9,1.4,4.3c.4,1.5.7,3,1,4.5.3,1.5.5,3,.6,4.5.1,1.5.2,3.1.2,4.6,0,1.5,0,3.1-.2,4.6-.1,1.5-.3,3-.6,4.5-.3,1.5-.6,3-1,4.4-.4,1.5-.9,2.9-1.4,4.3-.5,1.4-1.1,2.8-1.8,4.1s-1.3,2.7-2.1,3.9c-.8,1.3-1.6,2.5-2.4,3.7-.9,1.2-1.8,2.3-2.8,3.4-1,1.1-2,2.1-3,3.1-1.1,1-2.2,1.9-3.3,2.7-1.1.8-2.3,1.6-3.5,2.3-1.2.7-2.4,1.4-3.7,1.9-1.3.6-2.5,1.1-3.9,1.5-1.3.4-2.6.8-4,1.1-1.3.3-2.7.5-4,.7-1.4.1-2.7.2-4.1.2-1.4,0-2.7,0-4.1-.2-1.4-.2-2.7-.4-4-.7s-2.7-.7-4-1.1-2.6-1-3.8-1.6c-1.3-.6-2.5-1.2-3.7-2s-2.4-1.5-3.5-2.4c-1.1-.9-2.2-1.8-3.3-2.7-1-1-2.1-2-3-3.1-1-1.1-1.9-2.2-2.7-3.4-.9-1.2-1.7-2.4-2.4-3.7-.8-1.3-1.5-2.6-2.1-3.9-.6-1.3-1.2-2.7-1.7-4.2s-1-2.9-1.4-4.3c-.4-1.5-.7-2.9-1-4.5-.3-1.5-.5-3-.6-4.5s-.2-3.1-.2-4.6c0-1.5,0-3.1.2-4.6s.3-3,.6-4.5.6-3,1-4.4c.4-1.5.9-2.9,1.4-4.3.5-1.4,1.1-2.8,1.8-4.1s1.3-2.7,2.1-3.9c.8-1.3,1.6-2.5,2.4-3.7s1.8-2.3,2.8-3.4,2-2.1,3-3.1c1.1-1,2.1-1.9,3.3-2.7s2.3-1.6,3.5-2.3c1.2-.7,2.4-1.4,3.7-1.9s2.5-1.1,3.9-1.5c1.3-.4,2.6-.8,4-1.1,1.3-.3,2.7-.5,4-.7,1.4-.1,2.7-.2,4.1-.2,1.4,0,2.7,0,4.1.2,1.4.2,2.7.4,4,.7s2.7.7,4,1.1Z"/>
    <path class="cls-4" d="M209.1,224.1c-1.7,8-8.8,13.1-15.9,11.2-7.1-1.9-11.6-9.9-9.9-17.9,1.7-8,8.8-13.1,15.9-11.2,7.1,1.9,11.4,9.9,9.9,17.9Z"/>
    <path class="cls-3" d="M506.4,293.6c.4,1.5.6,3,.9,4.5.2,1.5.4,3,.5,4.6,0,1.5.1,3.1,0,4.6,0,1.5-.2,3.1-.3,4.6-.2,1.5-.4,3-.7,4.5-.3,1.5-.7,3-1.1,4.4-.4,1.5-.9,2.9-1.5,4.3-.6,1.4-1.2,2.8-1.9,4.1-.7,1.3-1.4,2.6-2.2,3.9s-1.6,2.4-2.5,3.6c-.9,1.2-1.8,2.3-2.8,3.3-1,1.1-2,2-3.1,3-1.1.9-2.2,1.8-3.4,2.6s-2.3,1.6-3.6,2.2c-1.2.7-2.5,1.3-3.7,1.8-1.3.5-2.6,1-3.9,1.4-1.3.4-2.6.7-4,1-1.3.2-2.7.4-4.1.5-1.4.1-2.7.1-4.1,0-1.4,0-2.7-.2-4.1-.4s-2.7-.5-4-.8-2.6-.8-3.9-1.3-2.6-1.1-3.8-1.7c-1.2-.6-2.4-1.3-3.6-2.1-1.2-.8-2.3-1.6-3.4-2.5-1.1-.9-2.2-1.8-3.2-2.9-1-1-2-2.1-2.9-3.2-.9-1.1-1.8-2.3-2.6-3.5-.8-1.2-1.6-2.5-2.3-3.8-.7-1.3-1.4-2.6-2-4-.6-1.4-1.2-2.8-1.6-4.2s-.9-2.9-1.3-4.4c-.4-1.5-.6-3-.9-4.5-.2-1.5-.4-3-.5-4.6,0-1.5-.1-3.1,0-4.6s.2-3.1.3-4.6c.2-1.5.4-3,.7-4.5.3-1.5.7-3,1.1-4.4.4-1.4.9-2.9,1.5-4.3.6-1.4,1.2-2.8,1.9-4.1.7-1.3,1.4-2.6,2.2-3.9s1.6-2.4,2.5-3.6c.9-1.1,1.8-2.2,2.8-3.3,1-1,2-2,3.1-3,1.1-.9,2.2-1.8,3.4-2.6s2.3-1.6,3.6-2.2c1.2-.7,2.5-1.3,3.7-1.8,1.3-.5,2.6-1,3.9-1.4,1.3-.4,2.6-.7,4-1,1.3-.2,2.7-.4,4.1-.5,1.4,0,2.7-.1,4.1,0,1.4,0,2.7.2,4.1.4,1.3.2,2.7.5,4,.8,1.3.3,2.6.8,3.9,1.3s2.6,1.1,3.8,1.7c1.2.6,2.5,1.3,3.6,2.1,1.2.8,2.3,1.6,3.4,2.5s2.2,1.8,3.2,2.9,2,2.1,2.9,3.2c.9,1.1,1.8,2.3,2.6,3.5.8,1.2,1.6,2.5,2.3,3.8s1.4,2.6,2,4c.6,1.4,1.2,2.8,1.6,4.2s.9,2.9,1.2,4.4Z"/>
    <path class="cls-4" d="M495.3,298c-1.7,8-8.8,13.1-15.9,11.2-7.1-1.9-11.6-9.9-9.9-17.9,1.7-8,8.8-13.1,15.9-11.2,6.9,1.9,11.4,9.9,9.9,17.9Z"/>
  </g>
  <path id="mouth" class="cls-3" d="M266.1,445.3c-18.5-5-34.6-11.7-48.3-19.5-50.3-27.9-80-69.2-84.4-78.1-5.4-10.6-1-19,2.9-21.8,3.9-3.3,11.7-6.7,21,5,1.5,2.2,2.9,4.5,3.4,7.3,9.3,12.3,33.2,40.2,68.8,59.7,55.6,31.3,114.7,30.7,174.7-1.7,6.8-3.9,14.6-.6,18.1,7.3,3.4,7.8.5,16.8-6.3,20.7-58.1,30.7-109.3,31.8-149.8,21.2Z"/>
</svg>